<?xml version="1.0" encoding="utf-8"?>
<!-- Generator: Adobe Illustrator 27.0.0, SVG Export Plug-In . SVG Version: 6.00 Build 0)  -->
<svg version="1.1" id="Layer_1" xmlns="http://www.w3.org/2000/svg" xmlns:xlink="http://www.w3.org/1999/xlink" x="0px" y="0px"
	 viewBox="0 0 246.21 117.46" style="enable-background:new 0 0 246.21 117.46;" xml:space="preserve">
<style type="text/css">
	.st0{fill:#256BB4;}
	.st1{fill:none;stroke:#256BB4;stroke-width:2.1237;stroke-miterlimit:10;}
	.st2{fill:none;stroke:#256BB4;stroke-width:3.101;stroke-miterlimit:10;}
	.st3{fill:none;stroke:#256BB4;stroke-width:3.2716;stroke-miterlimit:10;}
	.st4{fill:none;stroke:#256BB4;stroke-width:3.2708;stroke-miterlimit:10;}
</style>
<g>
	<path class="st0" d="M52.14,30.57c21.62,0,34.39,4.83,34.39,22.89c0,19.55-15.07,24.61-37.38,24.61h-0.92v30.82H62.6v2.19H18.33
		v-2.19h7.48V32.75h-7.48v-2.19H52.14z M48.23,75.88h2.42c9.66,0,12.19-6.67,12.19-20.01v-5.52c0-13-2.76-17.6-11.5-17.6h-3.1V75.88
		z"/>
	<path class="st0" d="M163.03,38.57l-8.7-27.7h-8.27V8.12h44.95v2.75h-8.56l21.61,68.59l17.4-68.59h-14.65V8.12h29v2.75h-9.57
		l-26.68,100.2h-12.91L165.2,45.53l-18.85,65.54h-12.62L97.19,10.87h-6.81V8.12h47.13v2.75h-10.15l23.64,69.46L163.03,38.57z"/>
	<line class="st1" x1="126.14" y1="110" x2="52.43" y2="110"/>
	<line class="st2" x1="100.2" y1="9.56" x2="7.66" y2="9.56"/>
	<line class="st3" x1="9.14" y1="111.07" x2="9.14" y2="8.07"/>
	<line class="st4" x1="234.53" y1="111.07" x2="234.53" y2="8.12"/>
</g>
</svg>
